<svg id="Слой_1" data-name="Слой 1" xmlns="http://www.w3.org/2000/svg" viewBox="0 0 150 150"><defs><style>.cls-1,.cls-2,.cls-3{fill:none;stroke:#fff;stroke-linecap:round;}.cls-1{stroke-miterlimit:10;stroke-width:3px;}.cls-2,.cls-3{stroke-linejoin:round;stroke-width:2px;}.cls-3{stroke-dasharray:8.98 8.98;}</style></defs><title>icons_to orange base</title><path class="cls-1" d="M90,137.5H9.3c-0.47,0-.8-1.17-0.8-1.64v-121c0-.47.33-0.36,0.8-0.36H29"/><path class="cls-1" d="M64,14.5h77.88c0.47,0,.62-0.11.62,0.36v121c0,0.47-.15,1.64-0.62,1.64H125"/><polyline class="cls-1" points="63.5 14 63.5 57.5 84 57.5"/><path class="cls-1" d="M142.09,34.56h-38a0.85,0.85,0,0,0-.85.85V48.66"/><line class="cls-1" x1="9" y1="117.5" x2="29" y2="117.5"/><line class="cls-1" x1="142" y1="66.5" x2="111" y2="66.5"/><path class="cls-1" d="M79.69,74.74H99.78a0.85,0.85,0,0,1,.85.85V96.11a0.85,0.85,0,0,0,.85.85h40.61"/><line class="cls-1" x1="111" y1="117.5" x2="142" y2="117.5"/><line class="cls-1" x1="9" y1="35.5" x2="29" y2="35.5"/><line class="cls-2" x1="48.48" y1="2.5" x2="48.48" y2="7"/><path class="cls-3" d="M48.48,16V67.9A17.1,17.1,0,0,0,65.58,85h0A15.39,15.39,0,0,1,81,100.38v12A13.68,13.68,0,0,0,94.65,126h0a16.25,16.25,0,0,1,15.55,11.54"/><path class="cls-2" d="M110.89,142q0,0.14,0,.27v4.23"/><path class="cls-1" d="M8.73,55.93H28a0.85,0.85,0,0,1,.85.85V97a0.85,0.85,0,0,0,.85.85H49.77"/><line class="cls-1" x1="58.5" y1="107" x2="58.5" y2="135"/></svg>