<svg id="Слой_1" data-name="Слой 1" xmlns="http://www.w3.org/2000/svg" viewBox="0 0 150 150"><defs><style>.cls-1,.cls-2,.cls-3{fill:none;stroke:#fff;stroke-linecap:round;}.cls-1,.cls-2{stroke-linejoin:round;}.cls-1,.cls-3{stroke-width:3px;}.cls-2{stroke-width:2px;stroke-dasharray:9;}.cls-3{stroke-miterlimit:10;}</style></defs><title>icons_to orange base</title><path class="cls-1" d="M147.5,118a80.47,80.47,0,0,1-1.83,16.51H5.33A80.47,80.47,0,0,1,3.5,118,72,72,0,1,1,147.5,118Z"/><path class="cls-1" d="M135.41,120.4a62.67,62.67,0,0,1-1.52,14.1H17.11a62.67,62.67,0,0,1-1.52-14.1C15.59,86.48,42.41,59,75.5,59S135.41,86.48,135.41,120.4Z"/><path class="cls-2" d="M25,109.71a52.21,52.21,0,0,1,102.25,3.79"/><path class="cls-1" d="M93.59,133.81c0,0.14,0,.69,0,0.69H57.41s0-.55,0-0.69A18.09,18.09,0,1,1,93.59,133.81Z"/><path class="cls-1" d="M87,112.57c1.35,0.71,2.53,2.35,3.5,3.24,0.38-.59.79-1.3,1.23-2.16C95.26,106.94,98.58,92,98.58,92s-11,10.08-14.48,16.79c-0.45.86-.8,1.6-1.07,2.24A17,17,0,0,1,87,112.57Z"/><line class="cls-3" x1="147.5" y1="17.99" x2="81.83" y2="17.99"/><line class="cls-3" x1="147.5" y1="30.53" x2="108.98" y2="30.53"/><line class="cls-3" x1="146.48" y1="44.34" x2="131.23" y2="44.34"/></svg>