<svg id="Слой_1" data-name="Слой 1" xmlns="http://www.w3.org/2000/svg" viewBox="0 0 150 150"><defs><style>.cls-1,.cls-2,.cls-3{fill:none;stroke:#fff;stroke-miterlimit:10;}.cls-1{stroke-width:3px;}.cls-2,.cls-3{stroke-linecap:round;stroke-width:2px;}.cls-3{stroke-dasharray:9.05 9.05;}</style></defs><title>icons_to orange base</title><path class="cls-1" d="M99.57,82.14h0a15.76,15.76,0,0,0,15.72,15.72H142v23.66a9.74,9.74,0,0,1-9.74,9.74H4.77a0.9,0.9,0,0,1-.9-0.9V27.44H133.56A8.44,8.44,0,0,1,142,35.88V66.26H115.45A15.93,15.93,0,0,0,99.57,82.14Z"/><path class="cls-1" d="M3.87,17.85H136.58a0,0,0,0,1,0,0v3.45a6.48,6.48,0,0,1-6.48,6.48H10.35a6.48,6.48,0,0,1-6.48-6.48V17.85A0,0,0,0,1,3.87,17.85Z" transform="translate(140.45 45.62) rotate(180)"/><circle class="cls-1" cx="117.59" cy="82.38" r="9.03"/><path class="cls-1" d="M114.3,66.26H144a3,3,0,0,1,3,3V94.83a3,3,0,0,1-3,3H114.7"/><line class="cls-2" x1="132.52" y1="106.89" x2="132.52" y2="111.39"/><path class="cls-3" d="M132.49,120.43a3.61,3.61,0,0,1-3.58,3.16H15.15A3.61,3.61,0,0,1,11.54,120V39.18a3.61,3.61,0,0,1,3.61-3.61H128.91a3.61,3.61,0,0,1,3.61,3.61v8.73"/><line class="cls-2" x1="132.52" y1="52.43" x2="132.52" y2="56.93"/></svg>