<svg xmlns="http://www.w3.org/2000/svg" viewBox="0 0 720 504"><defs><style>.a,.g{fill:none;}.a,.f{stroke:#ff7f00;}.a,.b,.c,.e,.f,.g{stroke-linecap:round;stroke-linejoin:round;stroke-width:8px;}.b{fill:#ebf2fa;}.b,.c,.e{stroke:#254356;}.c{fill:#a9d0df;}.d{opacity:0.05;}.e{fill:#fff;}.f{fill:#ff7f00;}.g{stroke:#fff;}</style></defs><title>333</title><path class="a" d="M643,268h58M581,103h25M557,203h60m0-44h99M79,347h59M21,347H46m324,97h84m-147,0h12M26,178H148M82,211h84M4,253H33M88,129H208M431,351h59M20,89H46m589,14h13M461,483h14"/><rect class="b" x="122.8" y="74.6" width="444.2" height="296.93"/><rect class="b" x="148" y="100" width="394.1" height="256.34"/><polygon class="c" points="53 372 103.8 372 633 372 633 389 53 389 53 372"/><polygon class="d" points="143 358.3 548.9 362 548.9 90.3 143 358.3"/><rect class="e" x="212" y="4" width="264" height="353"/><polygon class="f" points="184.8 262 168 262 168 185 296 185 296 262 200.7 262 185.2 278 184.8 262"/><line class="g" x1="183" y1="208" x2="281" y2="208"/><line class="g" x1="183" y1="226" x2="281" y2="226"/><line class="g" x1="183" y1="243" x2="230" y2="243"/><line class="e" x1="344" y1="46" x2="439" y2="46"/><line class="e" x1="344" y1="64" x2="439" y2="64"/><line class="e" x1="313" y1="169" x2="402" y2="169"/><path class="b" d="M53.3,389s-0.4,9,13.5,23H617.4s13.3-13,15.9-23H53.3Z"/><line class="e" x1="247" y1="129" x2="402" y2="129"/><line class="e" x1="247" y1="148" x2="402" y2="148"/><path class="f" d="M517,352.7a9.9,9.9,0,0,0,7.5,3.4h2.9a9.7,9.7,0,0,0,7.7-3.6,122.5,122.5,0,0,0,9.3-14s2.4-5.3,9.4-3.2a65.3,65.3,0,0,1,13.1,5.8s3.9,2.8,1.9,8.3-4.2,15.2-4.2,15.2a8,8,0,0,0,2.3,7.8l4.4,3.9a9.8,9.8,0,0,0,7.7,2.3,32.2,32.2,0,0,0,6.8-1.8c9.1-3.4,12.8-2.3,12.8-2.3s2.3-.2,6.5,8.9,3.2,10,3.2,10-0.6,4.2-7.4,7.6c0,0-11.4,6.6-12.8,9.5s-0.8,5.5-.6,8.5a10.3,10.3,0,0,0,3.1,6.9,43.3,43.3,0,0,0,9.2,6.9c6.6,3.6,8.6,5.3,8.9,7.5s-4.3,13.2-5.8,16.8a4,4,0,0,1-2.5,2.3,15.5,15.5,0,0,1-6.9.1c-7.4-1.1-13-2.7-16.3-3.1s-9.9,3.7-11.9,8.2,2.3,16.6,2.3,16.6,3.1,8.5,1.3,10.3-15.1,7.8-15.1,7.8-6.8,3.8-11.4-6.1a49.4,49.4,0,0,0-7-11.2,9.6,9.6,0,0,0-5.4-3.2,24.1,24.1,0,0,0-9.3-.3c-4.2.8-10.2,11.2-12.9,16.3a8.9,8.9,0,0,1-10.2,4.4l-1-.3a70.3,70.3,0,0,1-9.9-4.5,6.2,6.2,0,0,1-3.2-4.5,21.2,21.2,0,0,1,.8-8.6c2.4-9.1,3.6-12.8,3-14.6a16,16,0,0,0-4-6.9,9.8,9.8,0,0,0-8.6-2.5c-5.6,1-16.7,3-18.4,3.1s-5.2.7-8.6-7.7c-1.7-4.3-2.7-6.6-3.3-7.8a7.7,7.7,0,0,1,1.5-8.7,16.5,16.5,0,0,1,5.7-3.5,34.8,34.8,0,0,0,7.9-4.3,12.3,12.3,0,0,0,4.9-9.6l0.2-5.2a5.9,5.9,0,0,0-.2-1.6,9.1,9.1,0,0,0-4.7-6c-4.5-2.3-13.7-7.9-13.7-7.9s-5-2.4-.2-12.8l2.6-5.9a8.5,8.5,0,0,1,11.1-4.4h0.2a40.8,40.8,0,0,0,11.4,2.7,15.5,15.5,0,0,0,11.4-3.1,11.6,11.6,0,0,0,4-5.3c2-6.1-3.4-20.8-3.4-20.8s-3.2-6.7,6.2-9.6,10.9-3.6,10.9-3.6,4.4-2.9,9.2,6.2A57.9,57.9,0,0,0,517,352.7Zm8.5,38.7a26,26,0,1,0,26,26A26,26,0,0,0,525.4,391.4Z"/><path class="c" d="M617.5,244.6a7.3,7.3,0,0,0,5.3,2.9l2.1,0.2a7.1,7.1,0,0,0,5.8-2.3,89.6,89.6,0,0,0,7.5-9.8s2-3.8,7-1.9a47.8,47.8,0,0,1,9.3,4.9s2.7,2.2,1,6.1-3.8,10.9-3.8,10.9a5.9,5.9,0,0,0,1.3,5.8l3,3.1a7.1,7.1,0,0,0,5.5,2.1,23.6,23.6,0,0,0,5.1-1c6.8-2,9.4-1,9.4-1s1.7,0,4.3,6.8,1.8,7.5,1.8,7.5-0.6,3-5.8,5.2c0,0-8.7,4.2-9.8,6.3s-0.8,4-.9,6.2a7.6,7.6,0,0,0,1.9,5.2,31.7,31.7,0,0,0,6.3,5.5c4.7,2.9,6,4.3,6.1,5.9s-3.8,9.4-5.1,11.9a3,3,0,0,1-1.9,1.6,11.3,11.3,0,0,1-5-.2c-5.3-1.2-9.3-2.6-11.8-3.1s-7.4,2.2-9.1,5.4,0.9,12.2.9,12.2,1.8,6.4.4,7.6-11.4,4.9-11.4,4.9-5.2,2.4-8-5a36.1,36.1,0,0,0-4.5-8.5,7.1,7.1,0,0,0-3.7-2.6,17.6,17.6,0,0,0-6.7-.7c-3.1.4-8,7.6-10.2,11.2a6.5,6.5,0,0,1-7.7,2.7l-0.7-.3a51.4,51.4,0,0,1-7-3.7,4.5,4.5,0,0,1-2.1-3.4,15.5,15.5,0,0,1,1-6.2c2.2-6.5,3.2-9.1,2.9-10.5a11.7,11.7,0,0,0-2.6-5.3,7.2,7.2,0,0,0-6.1-2.3c-4.1.5-12.3,1.3-13.6,1.3s-3.8.3-5.9-6c-1-3.2-1.7-4.9-2-5.9a5.7,5.7,0,0,1,1.5-6.3,12.1,12.1,0,0,1,4.3-2.3,25.5,25.5,0,0,0,6-2.7,9,9,0,0,0,4.1-6.7l0.4-3.8a4.3,4.3,0,0,0,0-1.2,6.6,6.6,0,0,0-3.1-4.6c-3.2-1.9-9.6-6.5-9.6-6.5s-3.5-2,.5-9.3l2.2-4.2a6.2,6.2,0,0,1,8.3-2.7h0.1a29.8,29.8,0,0,0,8.2,2.6,11.4,11.4,0,0,0,8.5-1.7,8.5,8.5,0,0,0,3.2-3.7c1.8-4.4-1.4-15.3-1.4-15.3s-2-5.1,5-6.7,8.2-2,8.2-2,3.4-1.9,6.4,5A42.4,42.4,0,0,0,617.5,244.6Zm4.3,27.7a20,20,0,1,0,18.6,21.3A20,20,0,0,0,621.8,272.3Z"/></svg>