<svg xmlns="http://www.w3.org/2000/svg" viewBox="0 0 720 504"><defs><style>.a{fill:none;}.a,.d{stroke:#ff7f00;}.a,.b,.c,.d,.e,.f{stroke-linecap:round;stroke-linejoin:round;stroke-width:8px;}.b{fill:#ebf2fa;}.b,.c,.f{stroke:#254356;}.c{fill:#a9d0df;}.d{fill:#ff7f00;}.e,.f{fill:#fff;}.e{stroke:#fff;}.g{opacity:0.05;}</style></defs><title>111</title><path class="a" d="M689,111h27m-154,0H672M503,238h59m-38-37h84M54,416h84M4,416H30m114,42h84M98,461h11M48,182H169m-61,35h84M48,277H62m85-158H266M139,44h59M80,44h25M583,159h13"/><path class="b" d="M226.23,4L372.07,5C421,3.6,433.56,22.5,433.56,22.5L464.87,59s37.85,32.3,56.55,49.43A50.75,50.75,0,0,1,538,147.78V426.1c0,42.51-45.6,47.9-45.6,47.9H231.6c-41.82,0-47.6-43.95-47.6-43.95V44.46C190,2.44,226.23,4,226.23,4Zm16.68,26.33c-4.54,2-4.71,6-4,9.12,0.45,2.09,6.42,12.47,12.42,20.39C260.69,72.23,272.06,72,272.06,72H411.54c24.37,0,17.66-12.32,17.66-12.32s-0.64-1.85-10.61-16.91a37.89,37.89,0,0,0-6.08-7.19,23.89,23.89,0,0,0-16.08-6.09l-144.59,0C247.71,29.7,244.21,29.78,242.91,30.34Z"/><path class="b" d="M500.81,38.84l11.64-13.29s7.76-9,14.88-2.41C535.12,30.37,567,57.7,567,57.7s7.69,6.51,1.34,14.5L558.25,84.76a11.73,11.73,0,0,1-16.14,2.16l-0.54-.42c-7.5-6-32.19-27.83-38.57-33.49a12.69,12.69,0,0,1-3.73-5.62A8.49,8.49,0,0,1,500.81,38.84Z"/><circle class="c" cx="607" cy="350" r="44"/><line class="c" x1="627" y1="350" x2="590" y2="350"/><circle class="d" cx="607" cy="456" r="44"/><line class="e" x1="625" y1="470" x2="588" y2="470"/><line class="e" x1="625" y1="447" x2="588" y2="447"/><line class="f" x1="487.62" y1="58.41" x2="538.67" y2="105.09"/><line class="f" x1="280.14" y1="174.87" x2="443.35" y2="338.07"/><line class="f" x1="443.35" y1="174.87" x2="280.14" y2="338.07"/><path class="b" d="M319,183.38c-1.89,0-26-.92-26,22.11V311.81s1,18.25,25.81,19c37.6,1.2,37.77.63,88.55,0,0,0,19.76,1.06,19.44-20.36-0.33-21.59-.28-21.38,0-106.32,0,0-1.76-19.87-23-20.78H319Z"/><polygon class="g" points="207 469.85 538.76 469.85 536.83 396.88 538.76 147.76 207 469.85"/><circle class="c" cx="504" cy="350" r="44"/><line class="c" x1="503" y1="332" x2="503" y2="369"/><line class="c" x1="522" y1="350" x2="485" y2="350"/><circle class="c" cx="504" cy="456" r="44"/><line class="c" x1="492.73" y1="442.51" x2="518.61" y2="469.49"/><line class="c" x1="519.16" y1="443.06" x2="492.18" y2="468.94"/></svg>