<svg xmlns="http://www.w3.org/2000/svg" viewBox="0 0 720 504"><defs><style>.a,.b{fill:none;}.a,.i{stroke:#ff7f00;}.a,.b,.c,.d,.h,.i{stroke-linecap:round;stroke-linejoin:round;stroke-width:8px;}.b{stroke:#ee7d1c;}.c,.j{fill:#fff;}.c,.d,.h{stroke:#254356;}.d{fill:#ebf2fa;}.e{opacity:0.05;}.f{fill:#fcca12;}.g{fill:#ee7e1f;}.h{fill:#a9d0df;}.i{fill:#ff7f00;}</style></defs><title>222</title><path class="a" d="M688,104h28m-159,0H671M529,240h60m-49-46h84M49,411H151M4,411H25m132,42h84m-131,3h12M60,175H182m-61,36h84M60,271H74M230,25H350M208,52h99M159,52h26M599,152h13"/><line class="b" x1="549" y1="177" x2="561" y2="177"/><line class="b" x1="171" y1="248" x2="232" y2="248"/><line class="b" x1="238" y1="101" x2="327" y2="101"/><line class="b" x1="202" y1="101" x2="215" y2="101"/><polygon class="c" points="157 114.4 157 439.3 259.8 479.4 362.6 440.5 464.4 479.4 574 441.6 574 114.4 471.5 85.4 365.4 128.5 259.2 85.4 157 114.4"/><path class="d" d="M422.4,255.5l-61.3,43.2-70,27.2-58.5,50.4,30.9,76.5,93.1-37.3,118.2,35.3,32.4-19.5,15.6-82.2s25.7,3.5,24.6,1.9,0-26.8,0-26.8l-76.2-10.8-36.3-22.4Z"/><polygon class="d" points="182 353.2 182 135.8 259.4 112.4 361.5 159.9 471.3 110.1 545 132.7 545 142.6 507 157.3 363.3 269 303.1 290.9 288.6 252.1 239.7 118.9 221.8 123.4 281.5 302.3 210.8 358.9 182 355.9 182 353.2"/><polygon class="e" points="575.8 432.1 533.9 435.6 471.4 453.6 471.4 82.3 573.4 104.5 575.8 432.1"/><circle class="d" cx="554.9" cy="419.9" r="80.1"/><polygon class="f" points="510.6 374.6 542.1 434.6 567.5 406.6 510.6 374.6"/><polygon class="g" points="600.3 464.3 542.1 434.6 567.5 406.6 600.3 464.3"/><polygon class="h" points="184.1 424.4 234.4 443 214.3 386.2 182.5 384.3 184.1 424.4"/><polygon class="h" points="544.8 170.9 545 290 474.3 279.9 458.5 267.1 449.7 237.1 519.2 179 544.8 170.9"/><polygon class="e" points="363 445.4 318.3 450.4 263.8 474.9 259.6 79.1 365.3 130 363 445.4"/><path class="i" d="M364.1,213.3c-14.2-12.7-25.3-24-33.2-32.4-38.3-40.9-44-60.1-45.8-71.8a96.9,96.9,0,0,1-1-13.1c-0.1-8.5-.5-28.4,10.4-48.4C310,18.7,338.5,9.1,341.6,8.1c5.9-1.9,25-7.8,47.4-.8C426.8,19.1,439.7,57,441,61.1c9.3,28.8-1,55.9-8.5,71.3-9.9,20.3-41.7,54.8-68.4,80.9m0.7-172.6A42,42,0,1,0,406,81.9,42,42,0,0,0,364.8,40.7Z"/><rect class="j" x="226.9" y="110.7" width="10.3" height="26.49" transform="translate(-26.1 73.1) rotate(-17)"/></svg>