<svg xmlns="http://www.w3.org/2000/svg" viewBox="0 0 720 504"><defs><style>.a,.g{fill:none;}.a{stroke:#ff7f00;}.a,.b,.c,.g{stroke-linecap:round;stroke-linejoin:round;}.a,.b,.c{stroke-width:8px;}.b{fill:#ebf2fa;}.b,.c,.g{stroke:#254356;}.c{fill:#fff;}.d{opacity:0.05;}.e{fill:#ff7f00;}.f{fill:#fcca12;}.g{stroke-width:24px;}.h{fill:#fbc920;}.i{fill:#a9d0df;}</style></defs><title>444</title><line class="a" x1="623" y1="72" x2="681" y2="72"/><line class="a" x1="598" y1="106" x2="623" y2="106"/><line class="a" x1="574" y1="206" x2="634" y2="206"/><line class="a" x1="634" y1="162" x2="716" y2="162"/><line class="a" x1="55" y1="379" x2="110" y2="379"/><line class="a" x1="4" y1="379" x2="31" y2="379"/><line class="a" x1="250" y1="417" x2="334" y2="417"/><line class="a" x1="205" y1="417" x2="217" y2="417"/><line class="a" x1="23" y1="143" x2="141" y2="143"/><line class="a" x1="80" y1="179" x2="164" y2="179"/><line class="a" x1="40" y1="256" x2="54" y2="256"/><line class="a" x1="60" y1="104" x2="176" y2="104"/><line class="a" x1="441" y1="262" x2="500" y2="262"/><line class="a" x1="47" y1="54" x2="73" y2="54"/><line class="a" x1="652" y1="106" x2="665" y2="106"/><line class="a" x1="471" y1="394" x2="485" y2="394"/><ellipse class="b" cx="352.7" cy="452.4" rx="136.2" ry="47.6"/><rect class="b" x="95" y="4" width="509" height="390"/><rect class="c" x="122" y="30" width="457" height="293"/><polygon class="d" points="116.4 323 579.1 319.6 579.7 286.3 578.8 30.9 116.4 323"/><rect class="e" x="180" y="204" width="30" height="115"/><line class="c" x1="152" y1="61" x2="281" y2="61"/><line class="c" x1="152" y1="80" x2="281" y2="80"/><rect class="e" x="282" y="180" width="30" height="139"/><rect class="e" x="387" y="154" width="30" height="165"/><rect class="f" x="150" y="159" width="30" height="160"/><rect class="f" x="210" y="184" width="30" height="135"/><rect class="f" x="312" y="132" width="30" height="187"/><rect class="f" x="417" y="112" width="30" height="135"/><circle class="c" cx="492" cy="262.9" r="82.8"/><line class="c" x1="578.8" y1="347.9" x2="553.9" y2="323"/><line class="g" x1="649" y1="418.2" x2="578.8" y2="347.9"/><line class="c" x1="152" y1="102" x2="281" y2="102"/><path class="e" d="M438,275v45s19,19.7,50,21.9V275H438Z"/><path class="h" d="M492.4,208H540V325s-18,18.6-52,16.9V208h4.4Z"/><circle class="b" cx="352.7" cy="357.9" r="14"/><rect class="b" x="310" y="394" width="86" height="62"/><rect class="i" x="314" y="397" width="79" height="20"/></svg>